# AST/ASF file generated using VICON BodyLanguage
# -----------------------------------------------
:version 1.10
:name VICON
:units
  mass 1.0
  length 0.45
  angle deg
:documentation
   .ast/.asf automatically generated from VICON data using
   VICON BodyBuilder and BodyLanguage model FoxedUp or BRILLIANT.MOD
:root
   order TX TY TZ RX RY RZ
   axis XYZ
   position 0 0 0  
   orientation 0 0 0 
:bonedata
  begin
     id 1 
     name lhipjoint
     direction 0.575328 -0.747301 0.332475 
     length 2.40933 
     axis 0 0 0  XYZ
  end
  begin
     id 2 
     name lfemur
     direction 0.34202 -0.939693 0  
     length 7.31453  
     axis 0 0 20  XYZ
    dof rx ry rz
    limits (-160.0 20.0)
           (-70.0 70.0)
           (-60.0 70.0)
  end
  begin
     id 3 
     name ltibia
     direction 0.34202 -0.939693 0   
     length 7.82185   
     axis 0 0 20   XYZ
    dof rx
    limits (-10.0 170.0)
  end
  begin
     id 4 
     name lfoot
     direction 0.0795993 -0.218697 0.972541   
     length 2.19173   
     axis -90 7.62852e-016 20   XYZ
    dof rx rz
    limits (-45.0 90.0)
           (-70.0 20.0)
  end
  begin
     id 5 
     name ltoes
     direction 1.53537e-011 -4.21894e-011 1   
     length 1.10023   
     axis -90 7.62852e-016 20   XYZ
    dof rx
    limits (-90.0 20.0)
  end
  begin
     id 6 
     name rhipjoint
     direction -0.513884 -0.783789 0.348708   
     length 2.29716  
     axis 0 0 0  XYZ 
  end
  begin
     id 7 
     name rfemur
     direction -0.34202 -0.939693 0   
     length 7.59573   
     axis 0 0 -20   XYZ
    dof rx ry rz
    limits (-160.0 20.0)
           (-70.0 70.0)
           (-70.0 60.0)
  end
  begin
     id 8 
     name rtibia
     direction -0.34202 -0.939693 0   
     length 7.66402   
     axis 0 0 -20   XYZ
    dof rx
    limits (-10.0 170.0)
 end
 begin
     id 9 
     name rfoot
     direction -0.137793 -0.378584 0.915253   
     length 2.27056  
     axis -90 -7.62852e-016 -20   XYZ
    dof rx rz
    limits (-45.0 90.0)
           (-20.0 70.0)
  end
  begin
     id 10 
     name rtoes
     direction -1.53493e-011 -4.22159e-011 1   
     length 1.11766   
     axis -90 -7.62852e-016 -20   XYZ
    dof rx
    limits (-90.0 20.0)
  end
  begin
     id 11 
     name lowerback
     direction -0.00732775 0.998356 -0.05685   
     length 2.16513   
     axis 0 0 0   XYZ
    dof rx ry rz
    limits (-20.0 45.0)
           (-30.0 30.0)
           (-30.0 30.0)
  end
  begin
     id 12 
     name upperback
     direction 0.0218081 0.999627 -0.0164647   
     length 2.16755   
     axis 0 0 0   XYZ
    dof rx ry rz
    limits (-20.0 45.0)
           (-30.0 30.0)
           (-30.0 30.0)
  end
  begin
     id 13 
     name thorax
     direction 0.02365 0.999661 0.0108914   
     length 2.16932   
     axis 0 0 0   XYZ
    dof rx ry rz
    limits (-20.0 45.0)
           (-30.0 30.0)
           (-30.0 30.0)
  end
  begin
     id 14 
     name lowerneck
     direction -0.0523929 0.978385 0.200044   
     length 1.63877   
     axis 0 0 0   XYZ
    dof rx ry rz
    limits (-20.0 45.0)
           (-30.0 30.0)
           (-30.0 30.0)
  end
  begin
     id 15 
     name upperneck
     direction 0.0448674 0.981321 -0.187074   
     length 1.69014   
     axis 0 0 0   XYZ
    dof rx ry rz
    limits (-20.0 45.0)
           (-30.0 30.0)
           (-30.0 30.0)
  end
  begin
     id 16
     name head
     direction 0.0199089 0.996118 -0.0857429  
     length 1.70094  
     axis 0 0 0   XYZ
    dof rx ry rz
    limits (-20.0 45.0)
           (-30.0 30.0)
           (-30.0 30.0)
  end
  begin
     id 17 
     name lclavicle
     direction 0.940366 0.30191 -0.156722  
     length 3.37521  
     axis 0 0 0   XYZ
    dof ry rz
    limits (-20.0 10.0)
           (0.0 20.0)
  end
  begin
     id 18 
     name lhumerus
     direction 1 -4.4897e-011 -1.7911e-027   
     length 5.25287   
     axis 180 -30 -90   XYZ
    dof rx ry rz
    limits (-60.0 90.0)
           (-90.0 90.0)
           (-90.0 90.0)
  end
  begin
     id 19
     name lradius
     direction 1 -4.48951e-011 1.04424e-027   
     length 3.51014   
     axis 180 -30 -90   XYZ
    dof rx
    limits (-10.0 170.0)
  end
  begin
     id 20
     name lwrist
     direction 1 -4.48997e-011 -9.5942e-028   
     length 1.75507   
     axis 8.48502e-016 90 90   XYZ
    dof ry
    limits (-180.0 0.0)
 end
  begin
     id 21 
     name lhand
     direction 1 -4.48831e-011 -1.90777e-027   
     length 0.706179   
     axis 1.22306e-015 90 90   XYZ
    dof rx rz
    limits (-90.0 90.0)
           (-45.0 45.0)
  end
  begin
     id 22 
     name lfingers
     direction 1 -4.49108e-011 -3.85244e-027   
     length 0.569339   
     axis 2.44611e-015 90 90   XYZ
    dof rx
    limits (0.0 90.0)
  end
  begin
     id 23
     name lthumb
     direction 0.707107 -6.34953e-011 0.707107   
     length 0.817461   
     axis -90 45 -1.62303e-014   XYZ
    dof rx rz
    limits (-45.0 45.0)
           (-45.0 45.0)
  end
  begin
     id 24 
     name rclavicle
     direction -0.905329 0.382405 -0.184787   
     length 3.30787  
     axis 0 0 0   XYZ 
    dof ry rz
    limits (-10.0 20.0)
           (-20.0 0.0)
  end
  begin
     id 25 
     name rhumerus
     direction -1 -4.48953e-011 -9.15316e-029  
     length 5.28721   
     axis 180 30 90   XYZ
    dof rx ry rz
    limits (-90.0 60.0)
           (-90.0 90.0)
           (-90.0 90.0)
  end
  begin
     id 26 
     name rradius
     direction -1 -4.48987e-011 9.37824e-028   
     length 3.50544   
     axis 180 30 90   XYZ
    dof rx
    limits (-10.0 170.0)
  end
  begin
     id 27 
     name rwrist
     direction -1 -4.48967e-011 -9.58414e-028   
     length 1.75272   
     axis 8.48502e-016 -90 -90   XYZ
    dof ry
    limits (-180.0 0.0)
  end
  begin
     id 28
     name rhand
     direction -1 -4.48904e-011 -1.91266e-027   
     length 0.884996   
     axis 1.22306e-015 -90 -90   XYZ
    dof rx rz
    limits (-90.0 90.0)
           (-45.0 45.0)
  end
  begin
     id 29
     name rfingers
     direction -1 -4.4909e-011 -3.85015e-027   
     length 0.713507   
     axis 2.44611e-015 -90 -90   XYZ
    dof rx
    limits (0.0 90.0)
  end
  begin
     id 30
     name rthumb
     direction -0.707107 -6.34853e-011 0.707107   
     length 1.02446   
     axis -90 -45 1.62303e-014   XYZ
    dof rx rz
    limits (-45.0 45.0)
           (-45.0 45.0)
  end
:hierarchy
  begin
    root lhipjoint rhipjoint lowerback
    lhipjoint lfemur
    lfemur ltibia
    ltibia lfoot
    lfoot ltoes
    rhipjoint rfemur
    rfemur rtibia
    rtibia rfoot
    rfoot rtoes
    lowerback upperback
    upperback thorax
    thorax lowerneck lclavicle rclavicle
    lowerneck upperneck
    upperneck head
    lclavicle lhumerus
    lhumerus lradius
    lradius lwrist
    lwrist lhand lthumb
    lhand lfingers
    rclavicle rhumerus
    rhumerus rradius
    rradius rwrist
    rwrist rhand rthumb
    rhand rfingers
  end

#!OML:ASF F:\twosubjects\two\Thursday\Session 1\justin.ASF
:FULLY-SPECIFIED
:DEGREES
1
root -4.22672 18.0387 2.9956 3.84941 13.8872 -1.4434
lowerback -0.316678 6.99778 1.2982
upperback 2.43861 9.27067 2.25382
thorax 2.51632 4.63318 1.8173
lowerneck -11.9569 18.5034 2.16078
upperneck 22.7801 26.2827 -2.39253
head 9.77583 12.2188 2.07116
rclavicle -3.54831e-014 -2.38542e-015
rhumerus -14.1554 3.43306 -90.5997
rradius 41.9032
rwrist -1.77011
rhand -13.6295 17.1665
rfingers 7.12502
rthumb 12.4863 -12.4405
lclavicle -3.54831e-014 -2.38542e-015
lhumerus -27.1886 23.295 82.0216
lradius 18.9678
lwrist -22.3422
lhand 1.83912 37.9442
lfingers 7.12502
lthumb 27.3507 65.9798
rfemur -0.0487338 -7.66734 24.036
rtibia 36.3983
rfoot -15.4151 -9.18419
rtoes -29.6204
lfemur -22.97 1.51122 -19.7771
ltibia 17.3454
lfoot -0.80606 -7.2852
ltoes -7.45625
2
root -4.17532 18.0424 3.12922 3.55446 13.9971 -0.827825
lowerback 0.23447 6.81399 0.812105
upperback 2.49833 9.04837 1.94713
thorax 2.24876 4.51752 1.69158
lowerneck -12.0985 18.5221 2.12399
upperneck 23.0282 26.2889 -2.17326
head 9.85029 12.224 2.1691
rclavicle 9.06458e-014 1.59028e-015
rhumerus -14.2505 2.20679 -90.3025
rradius 40.6765
rwrist -1.38901
rhand -13.9064 17.0616
rfingers 7.12502
rthumb 12.2193 -12.5614
lclavicle 9.06458e-014 1.59028e-015
lhumerus -27.2958 22.6191 81.8832
lradius 19.4387
lwrist -22.1773
lhand 3.14331 38.8855
lfingers 7.12502
lthumb 28.5975 66.7178
rfemur -0.848115 -8.26282 22.9804
rtibia 39.2173
rfoot -14.2671 -8.39488
rtoes -29.5979
lfemur -22.0421 1.4094 -20.5036
ltibia 17.6767
lfoot -1.35556 -7.3404
ltoes -10.1182
3
root -4.13865 18.0459 3.26275 3.54977 13.5627 -0.404547
lowerback 0.299155 6.82912 0.174902
upperback 2.58918 9.07827 1.80218
thorax 2.23089 4.52171 1.88156
lowerneck -13.034 18.4598 1.32033
upperneck 24.0371 26.1529 -0.941262
head 10.0719 12.163 2.7461
rclavicle -2.98177e-015 1.03368e-014
rhumerus -14.2607 1.00206 -89.7835
rradius 39.5091
rwrist -1.22939
rhand -14.18 16.4192
rfingers 7.12502
rthumb 11.9555 -13.2194
lclavicle -2.98177e-015 1.03368e-014
lhumerus -27.133 22.8923 81.7037
lradius 19.1452
lwrist -22.0822
lhand 2.3825 40.0331
lfingers 7.12502
lthumb 27.8703 67.9855
rfemur -2.14255 -8.22706 22.1685
rtibia 42.0527
rfoot -12.4862 -7.42533
rtoes -28.1003
lfemur -21.7027 1.87068 -20.9966
ltibia 18.5448
lfoot -2.45349 -7.77321
ltoes -11.9287
4
root -4.11027 18.0515 3.39682 3.42095 12.8399 -0.526197
lowerback 0.266113 6.92811 -0.0994687
upperback 2.72941 9.21112 1.88462
thorax 2.33412 4.58078 2.12651
lowerneck -14.4545 18.3934 0.116646
upperneck 25.6336 26.0288 0.840225
head 10.4563 12.1044 3.62725
rclavicle 1.5207e-014 -8.74653e-015
rhumerus -14.325 -0.363741 -89.1437
rradius 38.3791
rwrist -0.603141
rhand -14.3683 15.6577
rfingers 7.12502
rthumb 11.774 -13.9914
lclavicle 1.5207e-014 -8.74653e-015
lhumerus -26.712 23.1067 81.7743
lradius 18.7457
lwrist -21.789
lhand 1.55702 42.2575
lfingers 7.12502
lthumb 27.0809 70.3354
rfemur -3.46426 -7.99266 21.9223
rtibia 44.7412
rfoot -10.0727 -6.46947
rtoes -24.9645
lfemur -21.3076 2.41482 -20.7861
ltibia 19.222
lfoot -3.38862 -7.95778
ltoes -11.5111
5
root -4.07771 18.0598 3.52834 3.15883 12.3396 -0.796156
lowerback 0.366078 6.89069 -0.134844
upperback 2.84912 9.16002 1.96983
thorax 2.38441 4.55313 2.22688
lowerneck -16.7174 18.253 -1.3078
upperneck 26.8372 26.0463 1.95055
head 10.9305 11.9978 4.43572
rclavicle -2.3059e-014 -1.59028e-015
rhumerus -14.4536 -1.56266 -88.6242
rradius 37.1187
rwrist -0.0244581
rhand -14.7984 15.4421
rfingers 7.12502
rthumb 11.3592 -14.2303
lclavicle -2.3059e-014 -1.59028e-015
lhumerus -26.4368 23.3556 81.5775
lradius 18.3766
lwrist -21.7564
lhand 1.07114 41.5841
lfingers 7.12502
lthumb 26.6159 69.7334
rfemur -4.78472 -7.96685 21.8461
rtibia 47.402
rfoot -7.10549 -5.7507
rtoes -21.6558
lfemur -20.8728 2.89142 -20.4563
ltibia 19.8714
lfoot -4.18587 -7.90949
ltoes -10.8653
6
root -4.03148 18.0628 3.65538 2.94463 12.1936 -0.642865
lowerback 0.656146 6.75608 -0.309984
upperback 2.85591 8.98591 1.82236
thorax 2.23273 4.4657 2.13192
lowerneck -14.2875 18.6401 0.332898
upperneck 25.3686 26.5537 -0.0305255
head 10.4996 12.2636 3.38562
rclavicle 5.43676e-014 -1.27222e-014
rhumerus -14.7458 -3.03204 -88.1772
rradius 35.8781
rwrist 0.21357
rhand -15.0535 15.4161
rfingers 7.12502
rthumb 11.1132 -14.2697
lclavicle 5.43676e-014 -1.27222e-014
lhumerus -26.5072 23.5881 81.07
lradius 18.2393
lwrist -22.1533
lhand 0.989135 39.5373
lfingers 7.12502
lthumb 26.5374 67.6985
rfemur -6.07199 -8.36422 21.2522
rtibia 50.0058
rfoot -3.69535 -4.86896
rtoes -19.8725
lfemur -20.3357 3.12369 -20.6567
ltibia 20.353
lfoot -4.94482 -7.82894
ltoes -10.3902
7
root -3.98218 18.0642 3.78266 2.7641 12.075 -0.178805
lowerback 1.11751 6.70857 -0.665388
upperback 2.75114 8.92904 1.54331
thorax 1.86035 4.4374 1.97022
lowerneck -12.7389 18.6972 0.885705
upperneck 24.2598 26.5894 -0.85462
head 10.0306 12.3395 2.84714
rclavicle -3.57812e-015 -1.43125e-014
rhumerus -15.4225 -5.24289 -87.6069
rradius 34.9993
rwrist 0.750606
rhand -15.3588 14.9473
rfingers 7.12502
rthumb 10.8187 -14.7541
lclavicle -3.57812e-015 -1.43125e-014
lhumerus -26.7161 24.0227 80.4226
lradius 18.0324
lwrist -22.9663
lhand 0.902562 39.1122
lfingers 7.12502
lthumb 26.4546 67.2858
rfemur -7.28635 -8.85446 20.2502
rtibia 52.5536
rfoot -0.52764 -3.73992
rtoes -16.6533
lfemur -19.6288 3.11185 -21.164
ltibia 20.6003
lfoot -5.56237 -7.73789
ltoes -9.57122
